{
	"patcher" : 	{
		"fileversion" : 1,
		"appversion" : 		{
			"major" : 9,
			"minor" : 0,
			"revision" : 2,
			"architecture" : "x64",
			"modernui" : 1
		}
,
		"classnamespace" : "dsp.gen",
		"rect" : [ 84.0, 131.0, 1020.0, 738.0 ],
		"gridsize" : [ 15.0, 15.0 ],
		"boxes" : [ 			{
				"box" : 				{
					"id" : "obj-14",
					"maxclass" : "newobj",
					"numinlets" : 1,
					"numoutlets" : 0,
					"patching_rect" : [ 14.0, 706.0, 58.0, 22.0 ],
					"text" : "out 1 env"
				}

			}
, 			{
				"box" : 				{
					"id" : "obj-13",
					"maxclass" : "newobj",
					"numinlets" : 0,
					"numoutlets" : 1,
					"outlettype" : [ "" ],
					"patching_rect" : [ 948.0, 13.0, 62.0, 22.0 ],
					"text" : "in 8 target"
				}

			}
, 			{
				"box" : 				{
					"id" : "obj-12",
					"maxclass" : "newobj",
					"numinlets" : 0,
					"numoutlets" : 1,
					"outlettype" : [ "" ],
					"patching_rect" : [ 815.0, 13.0, 69.0, 22.0 ],
					"text" : "in 7 sustain"
				}

			}
, 			{
				"box" : 				{
					"id" : "obj-11",
					"maxclass" : "newobj",
					"numinlets" : 0,
					"numoutlets" : 1,
					"outlettype" : [ "" ],
					"patching_rect" : [ 681.0, 13.0, 57.0, 22.0 ],
					"text" : "in 6 peak"
				}

			}
, 			{
				"box" : 				{
					"id" : "obj-10",
					"maxclass" : "newobj",
					"numinlets" : 0,
					"numoutlets" : 1,
					"outlettype" : [ "" ],
					"patching_rect" : [ 548.0, 13.0, 59.0, 22.0 ],
					"text" : "in 5 initial"
				}

			}
, 			{
				"box" : 				{
					"id" : "obj-9",
					"maxclass" : "newobj",
					"numinlets" : 0,
					"numoutlets" : 1,
					"outlettype" : [ "" ],
					"patching_rect" : [ 414.0, 13.0, 115.0, 22.0 ],
					"text" : "in 4 release @min 0"
				}

			}
, 			{
				"box" : 				{
					"id" : "obj-8",
					"maxclass" : "newobj",
					"numinlets" : 0,
					"numoutlets" : 1,
					"outlettype" : [ "" ],
					"patching_rect" : [ 281.0, 13.0, 108.0, 22.0 ],
					"text" : "in 3 decay @min 0"
				}

			}
, 			{
				"box" : 				{
					"id" : "obj-7",
					"maxclass" : "newobj",
					"numinlets" : 0,
					"numoutlets" : 1,
					"outlettype" : [ "" ],
					"patching_rect" : [ 148.0, 13.0, 108.0, 22.0 ],
					"text" : "in 2 attack @min 0"
				}

			}
, 			{
				"box" : 				{
					"id" : "obj-6",
					"maxclass" : "newobj",
					"numinlets" : 0,
					"numoutlets" : 1,
					"outlettype" : [ "" ],
					"patching_rect" : [ 14.0, 13.0, 55.0, 22.0 ],
					"text" : "in 1 gate"
				}

			}
, 			{
				"box" : 				{
					"code" : "// Generate linear ADSR envelopes.\r\n\r\nHistory y(0);\nHistory d(0);\nHistory dd(0);\nHistory ls(0);\nHistory tgt0(0);\nHistory tgt1(0);\nHistory bp(0);\nHistory ret1(0);\n\ngate    = in1;\nattack  = mstosamps(in2);\ndecay   = mstosamps(in3);\nrelease = mstosamps(in4);\ninitial = in5;\npeak    = in6;\nsustain = in7;\ntarget  = in8;\n\nif(gate != 0) {\n    if(bp == 0) {\n        d    = 1/attack;\n        dd   = 1/decay;\n        ls   = sustain;\n        bp   = 1;\n        tgt1 = initial;\n        tgt0 = peak;\n        y    = d!=0 ? 0 : 1;\n    }\n    else if(bp == 4) {\n        d    = 1/attack;\n        dd   = 1/decay;\n        ls   = sustain;\n        bp   = 1;\n        tgt1 = ret1;\n        tgt0 = peak;\n        y    = d!=0 ? 0 : 1;\n    }\n}\nelse {\n    if(bp == 3) {\n        d    = 1/release;\n        bp   = 4;\n        tgt1 = ls;\n        tgt0 = target;\n        y    = d!=0 ? 0 : 1;\n    }\n    else if(bp == 1 || bp == 2) {\n        d    = 1/release;\n        bp   = 4;\n        tgt1 = ret1;\n        tgt0 = target;\n        y    = d!=0 ? 0 : 1;\n    }\n}\n\nret0 = y * (tgt0-tgt1) + tgt1;\nret1 = ret0;\n\nif(bp == 1) {\n    y += d;\n\n    if(y >= 1) {\n        d    = dd;\n        bp   = 2;\n        tgt1 = tgt0;\n        tgt0 = ls;\n        y    = d!=0 ? 0 : 1;\n    }\n}\nelse if(bp == 2) {\n    y += d;\n\n    if(y >= 1) {\n        bp   = 3;\n        tgt1 = tgt0;\n        y    = 0;\n    }\n}\nelse if(bp == 4) {\n    y += d;\n\n    if(y >= 1) {\n        bp   = 0;\n        tgt1 = tgt0;\n        y    = d!=0 ? 0 : 1;\n    }\n}\n\nout1 = ret0;",
					"fontface" : 0,
					"fontname" : "<Monospaced>",
					"fontsize" : 12.0,
					"id" : "obj-5",
					"maxclass" : "codebox",
					"numinlets" : 8,
					"numoutlets" : 1,
					"outlettype" : [ "" ],
					"patching_rect" : [ 14.0, 52.0, 952.333333333333371, 638.0 ]
				}

			}
 ],
		"lines" : [ 			{
				"patchline" : 				{
					"destination" : [ "obj-5", 4 ],
					"source" : [ "obj-10", 0 ]
				}

			}
, 			{
				"patchline" : 				{
					"destination" : [ "obj-5", 5 ],
					"source" : [ "obj-11", 0 ]
				}

			}
, 			{
				"patchline" : 				{
					"destination" : [ "obj-5", 6 ],
					"source" : [ "obj-12", 0 ]
				}

			}
, 			{
				"patchline" : 				{
					"destination" : [ "obj-5", 7 ],
					"source" : [ "obj-13", 0 ]
				}

			}
, 			{
				"patchline" : 				{
					"destination" : [ "obj-14", 0 ],
					"source" : [ "obj-5", 0 ]
				}

			}
, 			{
				"patchline" : 				{
					"destination" : [ "obj-5", 0 ],
					"source" : [ "obj-6", 0 ]
				}

			}
, 			{
				"patchline" : 				{
					"destination" : [ "obj-5", 1 ],
					"source" : [ "obj-7", 0 ]
				}

			}
, 			{
				"patchline" : 				{
					"destination" : [ "obj-5", 2 ],
					"source" : [ "obj-8", 0 ]
				}

			}
, 			{
				"patchline" : 				{
					"destination" : [ "obj-5", 3 ],
					"source" : [ "obj-9", 0 ]
				}

			}
 ],
		"originid" : "pat-56"
	}

}
