{
	"patcher" : 	{
		"fileversion" : 1,
		"appversion" : 		{
			"major" : 9,
			"minor" : 0,
			"revision" : 2,
			"architecture" : "x64",
			"modernui" : 1
		}
,
		"classnamespace" : "dsp.gen",
		"rect" : [ 400.0, 87.0, 821.0, 746.0 ],
		"gridsize" : [ 15.0, 15.0 ],
		"boxes" : [ 			{
				"box" : 				{
					"id" : "obj-1",
					"maxclass" : "newobj",
					"numinlets" : 0,
					"numoutlets" : 1,
					"outlettype" : [ "" ],
					"patching_rect" : [ 712.0, 9.0, 99.0, 22.0 ],
					"text" : "in 2 gain @min 0"
				}

			}
, 			{
				"box" : 				{
					"id" : "obj-12",
					"maxclass" : "newobj",
					"numinlets" : 1,
					"numoutlets" : 0,
					"patching_rect" : [ 712.0, 717.0, 52.0, 22.0 ],
					"text" : "out 5 b2"
				}

			}
, 			{
				"box" : 				{
					"id" : "obj-10",
					"maxclass" : "newobj",
					"numinlets" : 1,
					"numoutlets" : 0,
					"patching_rect" : [ 537.0, 717.0, 52.0, 22.0 ],
					"text" : "out 4 b1"
				}

			}
, 			{
				"box" : 				{
					"id" : "obj-11",
					"maxclass" : "newobj",
					"numinlets" : 1,
					"numoutlets" : 0,
					"patching_rect" : [ 362.0, 717.0, 52.0, 22.0 ],
					"text" : "out 3 a2"
				}

			}
, 			{
				"box" : 				{
					"id" : "obj-9",
					"maxclass" : "newobj",
					"numinlets" : 1,
					"numoutlets" : 0,
					"patching_rect" : [ 187.0, 717.0, 52.0, 22.0 ],
					"text" : "out 2 a1"
				}

			}
, 			{
				"box" : 				{
					"id" : "obj-8",
					"maxclass" : "newobj",
					"numinlets" : 1,
					"numoutlets" : 0,
					"patching_rect" : [ 12.0, 717.0, 52.0, 22.0 ],
					"text" : "out 1 a0"
				}

			}
, 			{
				"box" : 				{
					"id" : "obj-6",
					"maxclass" : "newobj",
					"numinlets" : 0,
					"numoutlets" : 1,
					"outlettype" : [ "" ],
					"patching_rect" : [ 12.0, 9.0, 85.0, 22.0 ],
					"text" : "in 1 fc @min 0"
				}

			}
, 			{
				"box" : 				{
					"code" : "// Calculate the coefficients of the highshelf filter in a biquad filter\n// based on Nigel Redmon's equation.\n// https://www.earlevel.com/main/2011/01/02/biquad-formulas/\n\nHistory a0(0);\nHistory a1(0);\nHistory a2(0);\nHistory b1(0);\nHistory b2(0);\n\nfc   = in1;\ngain = in2;\n\nif(change(fc) || change(gain)) {\n    k = tan(PI * fc / SAMPLERATE);\n    v = dbtoa(abs(gain));\n\n    a0 = 0;\n    a1 = 0;\n    a2 = 0;\n    b1 = 0;\n    b2 = 0;\n\n    if (gain >= 0) {\n        // boost\n        norm = 1 / (1 + SQRT2 * k + k * k);\n        a0 = (v + sqrt(2*v) * k + k * k) * norm;\n        a1 = 2 * (k * k - v) * norm;\n        a2 = (v - sqrt(2*v) * k + k * k) * norm;\n        b1 = 2 * (k * k - 1) * norm;\n        b2 = (1 - SQRT2 * k + k * k) * norm;\n    }\n    else {\n        // cut\n        norm = 1 / (v + sqrt(2*v) * k + k * k);\n        a0 = (1 + SQRT2 * k + k * k) * norm;\n        a1 = 2 * (k * k - 1) * norm;\n        a2 = (1 - SQRT2 * k + k * k) * norm;\n        b1 = 2 * (k * k - v) * norm;\n        b2 = (v - sqrt(2*v) * k + k * k) * norm;\n    }\n}\n\nout1, out2, out3, out4, out5 = a0, a1, a2, b1, b2;",
					"fontface" : 0,
					"fontname" : "<Monospaced>",
					"fontsize" : 12.0,
					"id" : "obj-5",
					"maxclass" : "codebox",
					"numinlets" : 2,
					"numoutlets" : 5,
					"outlettype" : [ "", "", "", "", "" ],
					"patching_rect" : [ 12.0, 33.0, 719.0, 682.0 ]
				}

			}
 ],
		"lines" : [ 			{
				"patchline" : 				{
					"destination" : [ "obj-5", 1 ],
					"source" : [ "obj-1", 0 ]
				}

			}
, 			{
				"patchline" : 				{
					"destination" : [ "obj-10", 0 ],
					"source" : [ "obj-5", 3 ]
				}

			}
, 			{
				"patchline" : 				{
					"destination" : [ "obj-11", 0 ],
					"source" : [ "obj-5", 2 ]
				}

			}
, 			{
				"patchline" : 				{
					"destination" : [ "obj-12", 0 ],
					"source" : [ "obj-5", 4 ]
				}

			}
, 			{
				"patchline" : 				{
					"destination" : [ "obj-8", 0 ],
					"source" : [ "obj-5", 0 ]
				}

			}
, 			{
				"patchline" : 				{
					"destination" : [ "obj-9", 0 ],
					"source" : [ "obj-5", 1 ]
				}

			}
, 			{
				"patchline" : 				{
					"destination" : [ "obj-5", 0 ],
					"source" : [ "obj-6", 0 ]
				}

			}
 ],
		"originid" : "pat-115"
	}

}
