{
	"patcher" : 	{
		"fileversion" : 1,
		"appversion" : 		{
			"major" : 9,
			"minor" : 0,
			"revision" : 2,
			"architecture" : "x64",
			"modernui" : 1
		}
,
		"classnamespace" : "dsp.gen",
		"rect" : [ 140.0, 113.0, 820.0, 576.0 ],
		"gridsize" : [ 15.0, 15.0 ],
		"boxes" : [ 			{
				"box" : 				{
					"id" : "obj-1",
					"maxclass" : "newobj",
					"numinlets" : 0,
					"numoutlets" : 1,
					"outlettype" : [ "" ],
					"patching_rect" : [ 710.0, 9.0, 99.0, 22.0 ],
					"text" : "in 3 gain @min 0"
				}

			}
, 			{
				"box" : 				{
					"id" : "obj-12",
					"maxclass" : "newobj",
					"numinlets" : 1,
					"numoutlets" : 0,
					"patching_rect" : [ 710.0, 541.0, 52.0, 22.0 ],
					"text" : "out 5 b2"
				}

			}
, 			{
				"box" : 				{
					"id" : "obj-10",
					"maxclass" : "newobj",
					"numinlets" : 1,
					"numoutlets" : 0,
					"patching_rect" : [ 535.0, 541.0, 52.0, 22.0 ],
					"text" : "out 4 b1"
				}

			}
, 			{
				"box" : 				{
					"id" : "obj-11",
					"maxclass" : "newobj",
					"numinlets" : 1,
					"numoutlets" : 0,
					"patching_rect" : [ 360.0, 541.0, 52.0, 22.0 ],
					"text" : "out 3 a2"
				}

			}
, 			{
				"box" : 				{
					"id" : "obj-9",
					"maxclass" : "newobj",
					"numinlets" : 1,
					"numoutlets" : 0,
					"patching_rect" : [ 185.0, 541.0, 52.0, 22.0 ],
					"text" : "out 2 a1"
				}

			}
, 			{
				"box" : 				{
					"id" : "obj-8",
					"maxclass" : "newobj",
					"numinlets" : 1,
					"numoutlets" : 0,
					"patching_rect" : [ 10.0, 541.0, 52.0, 22.0 ],
					"text" : "out 1 a0"
				}

			}
, 			{
				"box" : 				{
					"id" : "obj-7",
					"maxclass" : "newobj",
					"numinlets" : 0,
					"numoutlets" : 1,
					"outlettype" : [ "" ],
					"patching_rect" : [ 360.0, 9.0, 126.0, 22.0 ],
					"text" : "in 2 q @min 0.000001"
				}

			}
, 			{
				"box" : 				{
					"id" : "obj-6",
					"maxclass" : "newobj",
					"numinlets" : 0,
					"numoutlets" : 1,
					"outlettype" : [ "" ],
					"patching_rect" : [ 10.0, 9.0, 85.0, 22.0 ],
					"text" : "in 1 fc @min 0"
				}

			}
, 			{
				"box" : 				{
					"code" : "// Calculate the coefficients of the gain-allpass filter in a biquad filter\n\nHistory a0(0);\nHistory a1(0);\nHistory a2(0);\nHistory b1(0);\nHistory b2(0);\n\nfc   = in1;\nq    = in2;\ngain = in3;\n\nif(change(fc) || change(q) || change(gain)) {\n    omega = fc * TWOPI / SAMPLERATE;\n    sn    = sin(omega);\n    cs    = cos(omega);\n    igain = 1 / gain;\n    alpha = sn * 0.5 / q;\n\n    b0  = 1 / (1 + alpha);\n    b0g = 1 / (igain + (alpha * igain));\n\n    a0 = (1 - alpha) * b0g;\n    a1 = -2 * cs * b0g;\n    a2 = gain;\n    b1 = -2 * cs * b0;\n    b2 = (1 - alpha) * b0;\n}\n\nout1, out2, out3, out4, out5 = a0, a1, a2, b1, b2;",
					"fontface" : 0,
					"fontname" : "<Monospaced>",
					"fontsize" : 12.0,
					"id" : "obj-5",
					"maxclass" : "codebox",
					"numinlets" : 3,
					"numoutlets" : 5,
					"outlettype" : [ "", "", "", "", "" ],
					"patching_rect" : [ 10.0, 33.0, 719.0, 506.0 ]
				}

			}
 ],
		"lines" : [ 			{
				"patchline" : 				{
					"destination" : [ "obj-5", 2 ],
					"source" : [ "obj-1", 0 ]
				}

			}
, 			{
				"patchline" : 				{
					"destination" : [ "obj-10", 0 ],
					"source" : [ "obj-5", 3 ]
				}

			}
, 			{
				"patchline" : 				{
					"destination" : [ "obj-11", 0 ],
					"source" : [ "obj-5", 2 ]
				}

			}
, 			{
				"patchline" : 				{
					"destination" : [ "obj-12", 0 ],
					"source" : [ "obj-5", 4 ]
				}

			}
, 			{
				"patchline" : 				{
					"destination" : [ "obj-8", 0 ],
					"source" : [ "obj-5", 0 ]
				}

			}
, 			{
				"patchline" : 				{
					"destination" : [ "obj-9", 0 ],
					"source" : [ "obj-5", 1 ]
				}

			}
, 			{
				"patchline" : 				{
					"destination" : [ "obj-5", 0 ],
					"source" : [ "obj-6", 0 ]
				}

			}
, 			{
				"patchline" : 				{
					"destination" : [ "obj-5", 1 ],
					"source" : [ "obj-7", 0 ]
				}

			}
 ],
		"originid" : "pat-156"
	}

}
