{
	"patcher" : 	{
		"fileversion" : 1,
		"appversion" : 		{
			"major" : 9,
			"minor" : 0,
			"revision" : 2,
			"architecture" : "x64",
			"modernui" : 1
		}
,
		"classnamespace" : "dsp.gen",
		"rect" : [ 459.0, 302.0, 600.0, 469.0 ],
		"gridsize" : [ 15.0, 15.0 ],
		"boxes" : [ 			{
				"box" : 				{
					"id" : "obj-9",
					"maxclass" : "newobj",
					"numinlets" : 1,
					"numoutlets" : 0,
					"patching_rect" : [ 15.0, 434.0, 71.0, 22.0 ],
					"text" : "out 1 phase"
				}

			}
, 			{
				"box" : 				{
					"code" : "History isActive(0);\r\nHistory ramp(0);\r\n\r\ntrigger   = in1;\r\nfrequency = in2;\r\n\r\nif(trigger) {\r\n    isActive = 1;\r\n    ramp     = 0;\r\n}\r\n\r\nout1 = ramp;\r\n\r\nif(isActive) {\r\n    ramp = clip(ramp + frequency / SAMPLERATE, 0, 1);\r\n\r\n    if(ramp >= 1) {\r\n        isActive = 0;\r\n        ramp     = 0;\r\n    }\r\n}",
					"fontface" : 0,
					"fontname" : "<Monospaced>",
					"fontsize" : 12.0,
					"id" : "obj-8",
					"maxclass" : "codebox",
					"numinlets" : 2,
					"numoutlets" : 1,
					"outlettype" : [ "" ],
					"patching_rect" : [ 15.0, 49.5, 502.0, 367.0 ]
				}

			}
, 			{
				"box" : 				{
					"id" : "obj-5",
					"maxclass" : "newobj",
					"numinlets" : 0,
					"numoutlets" : 1,
					"outlettype" : [ "" ],
					"patching_rect" : [ 498.0, 10.0, 84.0, 22.0 ],
					"text" : "in 2 frequency"
				}

			}
, 			{
				"box" : 				{
					"id" : "obj-1",
					"maxclass" : "newobj",
					"numinlets" : 0,
					"numoutlets" : 1,
					"outlettype" : [ "" ],
					"patching_rect" : [ 15.0, 10.0, 65.0, 22.0 ],
					"text" : "in 1 trigger"
				}

			}
 ],
		"lines" : [ 			{
				"patchline" : 				{
					"destination" : [ "obj-8", 0 ],
					"source" : [ "obj-1", 0 ]
				}

			}
, 			{
				"patchline" : 				{
					"destination" : [ "obj-8", 1 ],
					"source" : [ "obj-5", 0 ]
				}

			}
, 			{
				"patchline" : 				{
					"destination" : [ "obj-9", 0 ],
					"source" : [ "obj-8", 0 ]
				}

			}
 ],
		"originid" : "pat-15"
	}

}
